HIERARCHY
ROOT Hips
{
    OFFSET 0.000000 0.000000 0.000000
    CHANNELS 6 Xposition Yposition Zposition Zrotation Xrotation Yrotation
        JOINT Chest
        {
            OFFSET -0.000000 31.935503 -0.000000
            CHANNELS 3 Zrotation Xrotation Yrotation
            JOINT Neck
            {
                OFFSET -0.000000 23.713140 0.000000
                CHANNELS 3 Zrotation Xrotation Yrotation
                JOINT Head
                {
                    OFFSET -0.000000 10.938888 0.000000
                    CHANNELS 3 Zrotation Xrotation Yrotation
                    End Site
                    {
                        OFFSET -0.000000 16.905556 0.000000
                    }
                }
            }
            JOINT LeftCollar
            {
                OFFSET -0.000000 23.713140 0.000000
                CHANNELS 3 Zrotation Xrotation Yrotation
                JOINT LeftShoulder
                {
                    OFFSET 19.888887 -0.000000 0.000000
                    CHANNELS 3 Zrotation Xrotation Yrotation
                    JOINT LeftElbow
                    {
                        OFFSET 23.906332 0.000000 0.000000
                        CHANNELS 3 Zrotation Xrotation Yrotation
                        JOINT LeftWrist
                        {
                            OFFSET 25.116924 0.000000 0.000000
                            CHANNELS 3 Zrotation Xrotation Yrotation
                            End Site
                            {
                                OFFSET 0.000000 -14.916667 0.000000
                            }
                        }
                    }
                }
            }
            JOINT RightCollar
            {
                OFFSET -0.000000 23.713140 0.000000
                CHANNELS 3 Zrotation Xrotation Yrotation
                JOINT RightShoulder
                {
                    OFFSET -19.888887 0.000000 0.000000
                    CHANNELS 3 Zrotation Xrotation Yrotation
                    JOINT RightElbow
                    {
                        OFFSET -23.906332 0.000000 0.000000
                        CHANNELS 3 Zrotation Xrotation Yrotation
                        JOINT RightWrist
                        {
                            OFFSET -25.116924 0.000000 0.000000
                            CHANNELS 3 Zrotation Xrotation Yrotation
                            End Site
                            {
                                OFFSET -0.000000 -14.916667 0.000000
                            }
                        }
                    }
                }
            }
        }
    JOINT LeftHip
    {
        OFFSET 11.933332 0.000000 0.000000
        CHANNELS 3 Zrotation Xrotation Yrotation
        JOINT LeftKnee
        {
            OFFSET -0.000000 -35.996647 0.000000
            CHANNELS 3 Zrotation Xrotation Yrotation
            JOINT LeftAnkle
            {
                OFFSET -0.000000 -39.788193 0.000000
                CHANNELS 3 Zrotation Xrotation Yrotation
                End Site
                {
                    OFFSET -0.000000 -4.972222 16.905556
                }
            }
        }
    }
    JOINT RightHip
    {
        OFFSET -11.933332 0.000000 0.000000
        CHANNELS 3 Zrotation Xrotation Yrotation
        JOINT RightKnee
        {
            OFFSET -0.000000 -35.996647 0.000000
            CHANNELS 3 Zrotation Xrotation Yrotation
            JOINT RightAnkle
            {
                OFFSET -0.000000 -39.788193 0.000000
                CHANNELS 3 Zrotation Xrotation Yrotation
                End Site
                {
                    OFFSET -0.000000 -4.972222 16.905556
                }
            }
        }
    }
}
MOTION
Frames:    12
Frame Time:    0.010000
11.626945    84.463448    16.857189    2.273735    3.266938    -68.837814    6.845939    17.505009    11.176126    16.167841    3.046068    9.793381    -20.907246    -6.562951    9.093707    -17.321188    1.412221    -9.310397    -25.893293    47.335739    -32.580853    20.810654    -14.208931    -67.378212    101.713104    24.336416    61.248207    8.628622    -1.190042    -16.170454    -9.341433    54.471157    81.870171    -13.469412    -7.183580    55.595692    -103.117912    0.084348    -34.201672    23.808060    -18.539616    5.159516    -1.943944    21.603800    -2.962747    -17.799440    -1.570878    20.955515    -14.370160    -10.905326    -10.747335    7.267708    29.257185    -19.375336    10.136146    -13.166947    2.710811    
11.660229    84.410927    16.405645    2.200269    3.410067    -69.831963    6.918393    17.919973    10.448369    16.453203    3.200018    10.602561    -21.503584    -6.524640    9.906604    -17.210121    1.365853    -9.131627    -24.463600    47.465931    -34.366688    21.171379    -14.340077    -66.926483    101.282768    24.056812    61.631866    8.597957    -1.222395    -15.907810    -8.854454    54.646156    81.019981    -13.814927    -7.499419    56.163784    -104.369843    0.922703    -34.100700    24.423508    -18.093466    5.568733    -1.970929    21.465849    -2.473375    -18.148827    -1.305764    21.086332    -13.888017    -11.678882    -10.195639    7.248090    29.801863    -18.975315    9.946698    -13.256249    2.753078    
11.685745    84.359779    15.972720    2.083073    3.511395    -70.832481    6.947336    18.376253    9.754757    16.723907    3.372001    11.397298    -22.054285    -6.460817    10.716250    -17.061480    1.370543    -8.945800    -23.010553    47.505997    -36.157673    21.458973    -14.391136    -66.506790    101.026009    23.583296    61.921303    8.607217    -1.183897    -15.638074    -8.370407    54.741444    80.100121    -13.965009    -7.622900    56.860886    -105.941582    1.824968    -33.958996    24.980892    -17.567808    5.957716    -1.981519    21.324482    -2.015462    -18.420931    -1.031372    21.243372    -13.385336    -12.352067    -9.598565    7.181604    30.293171    -18.586885    9.779309    -13.341671    2.802099    
11.706319    84.311005    15.557723    1.930788    3.572867    -71.837532    6.935835    18.868826    9.104373    16.979620    3.550402    12.175609    -22.564772    -6.368940    11.518669    -16.898643    1.310488    -8.774180    -21.510246    47.546238    -37.946396    21.825237    -14.542358    -66.082253    100.797997    22.880009    62.069168    8.631764    -1.155149    -15.379704    -7.858679    54.808926    79.167267    -14.169027    -7.846753    57.457085    -107.414436    2.547108    -33.665222    25.478462    -16.975451    6.307039    -1.983542    21.178234    -1.571008    -18.646864    -0.759696    21.423580    -12.876926    -12.931594    -8.965461    7.080545    30.728968    -18.208256    9.620429    -13.422311    2.858795    
11.724212    84.265259    15.159625    1.753551    3.600978    -72.843712    6.893320    19.391842    8.499400    17.215975    3.730769    12.936857    -23.040747    -6.254646    12.311511    -16.714191    1.262251    -8.629835    -20.026363    47.475399    -39.689110    22.070005    -14.561618    -65.735489    100.781296    22.054031    62.134079    8.671070    -1.130354    -15.141839    -7.289380    54.837780    78.166153    -14.370790    -8.052165    58.026772    -108.802048    3.123695    -33.331627    25.921553    -16.331947    6.601913    -1.985690    21.025637    -1.124657    -18.861242    -0.503164    21.626059    -12.374088    -13.428460    -8.306239    6.959739    31.109016    -17.841373    9.456873    -13.494638    2.923160    
11.741109    84.222542    14.777386    1.562294    3.605488    -73.847672    6.832097    19.938257    7.936786    17.426861    3.912341    13.680100    -23.488155    -6.128891    13.090724    -16.508659    1.251271    -8.520561    -18.529861    47.247509    -41.418133    22.201982    -14.508037    -65.470795    100.898155    21.086401    62.069408    8.708628    -1.169409    -14.929847    -6.628423    54.874889    77.085960    -14.646380    -8.320971    58.516651    -109.978325    3.502762    -32.955368    26.320938    -15.653910    6.834994    -1.995825    20.866377    -0.666639    -19.101189    -0.275967    21.851538    -11.884582    -13.857920    -7.628741    6.835844    31.436180    -17.491150    9.277344    -13.553268    2.994041    
11.759828    84.182274    14.409672    1.372987    3.598749    -74.846840    6.764091    20.493353    7.412189    17.608311    4.100449    14.404611    -23.916243    -6.006556    13.852880    -16.299957    1.191864    -8.445830    -17.005371    46.928928    -43.136791    22.328087    -14.497528    -65.252655    101.022217    19.991829    61.886894    8.779086    -1.147139    -14.741693    -5.822273    54.796421    75.806824    -14.781385    -8.440556    59.109936    -111.151215    3.829531    -32.604462    26.690533    -14.964555    7.005519    -2.020729    20.703747    -0.189750    -19.396032    -0.089737    22.099312    -11.413398    -14.245920    -6.939830    6.724827    31.719376    -17.163729    9.073950    -13.592281    3.069738    
11.786231    84.143486    14.054446    1.210558    3.594672    -75.840065    6.698280    21.029734    6.922758    17.760492    4.302879    15.108274    -24.336439    -5.902806    14.592681    -16.078745    1.179105    -8.404383    -15.515008    46.411957    -44.803608    22.273094    -14.315475    -65.168877    101.285706    18.954079    61.652103    8.862314    -1.148458    -14.575590    -4.838631    54.670773    74.358521    -14.992630    -8.670619    59.639370    -112.022491    3.945817    -32.153191    27.045122    -14.298964    7.116621    -2.066402    20.546125    0.316495    -19.760794    0.050787    22.366079    -10.963189    -14.634956    -6.247520    6.639123    31.975847    -16.863586    8.842375    -13.606000    3.148043    
11.828377    84.105179    13.709177    1.104869    3.606364    -76.828102    6.640989    21.511814    6.467646    17.885864    4.530159    15.789849    -24.759644    -5.830595    15.306949    -15.856149    1.166250    -8.389781    -14.026410    45.747498    -46.442383    22.111513    -14.165410    -65.173920    101.572205    18.034153    61.271526    8.970999    -1.141167    -14.423289    -3.663172    54.468430    72.676109    -15.164013    -8.866488    60.227402    -112.760902    3.979655    -31.667881    27.399220    -13.698681    7.175561    -2.137700    20.406088    0.863949    -20.196539    0.147534    22.646280    -10.532985    -15.077053    -5.560761    6.584904    32.227966    -16.591726    8.581991    -13.590357    3.227338    
11.893367    84.066597    13.371541    1.080317    3.642699    -77.813789    6.595639    21.908730    6.047886    17.989933    4.788465    16.446232    -25.195812    -5.797849    15.991093    -15.630515    1.172957    -8.397461    -12.577664    44.929447    -48.023300    21.851871    -13.956882    -65.267212    101.831238    17.308395    60.721935    9.108265    -1.130621    -14.279236    -2.301614    54.186001    70.761200    -15.340977    -9.077442    60.856346    -113.308685    3.919795    -31.132008    27.765295    -13.197721    7.196986    -2.236273    20.297533    1.456437    -20.692926    0.206830    22.933437    -10.117576    -15.616673    -4.887255    6.561253    32.496326    -16.344194    8.295546    -13.543291    3.306654    
11.984751    84.027573    13.039791    1.147724    3.706862    -78.801468    6.563556    22.203917    5.664927    18.075724    5.080862    17.076214    -25.648720    -5.806540    16.643400    -15.405906    1.168040    -8.420661    -11.162885    44.011433    -49.551388    21.560989    -13.768560    -65.397217    102.055176    16.804625    59.955078    9.268751    -1.150836    -14.134876    -0.777511    53.848450    68.629471    -15.563518    -9.340648    61.512161    -113.647362    3.776048    -30.558527    28.153280    -12.812243    7.203881    -2.360478    20.233418    2.084371    -21.231171    0.236556    23.221142    -9.707425    -16.276825    -4.231717    6.560339    32.793476    -16.113117    7.988834    -13.464827    3.386297    
12.101885    83.988556    12.713176    1.302797    3.796206    -79.795799    6.544766    22.397711    5.318691    18.143467    5.410428    17.680321    -26.117847    -5.857466    17.264902    -15.188465    1.101157    -8.452542    -9.793146    43.066490    -51.013268    21.301266    -13.633864    -65.518661    102.230804    16.477589    58.914791    9.462716    -1.164069    -13.978130    0.872630    53.411686    66.280693    -15.751827    -9.577241    62.257793    -113.894897    3.623607    -29.986656    28.568562    -12.538300    7.221430    -2.506576    20.223331    2.729769    -21.786871    0.245208    23.503065    -9.291559    -17.055285    -3.596428    6.569592    33.121841    -15.887933    7.669828    -13.356774    3.467821    
